<svg width="60" height="60" viewBox="0 0 60 60" fill="none" xmlns="http://www.w3.org/2000/svg">
<path d="M11.0667 51.0019L6.85547 3.75H53.1455L48.9286 50.9944L29.9723 56.25L11.0667 51.0019Z" fill="#1572B6"/>
<path d="M30 52.2336L45.3188 47.9868L48.9225 7.61426H30V52.2336Z" fill="#33A9DC"/>
<path d="M30 24.7332H37.6688L38.1975 18.7988H30V13.0032H30.0206H44.5312L44.3925 14.5575L42.9694 30.5288H30V24.7332Z" fill="white"/>
<path d="M30.0358 39.7837L30.0096 39.7912L23.5558 38.0474L23.1433 33.4255H20.0064H17.3252L18.1371 42.5249L30.0077 45.8212L30.0358 45.8137V39.7837Z" fill="#EBEBEB"/>
<path d="M37.1753 30.2832L36.4778 38.0438L30.0146 39.7876V45.8176L41.8946 42.5251L41.9828 41.5463L42.9896 30.2832H37.1753Z" fill="white"/>
<path d="M30.0211 13.0032V16.6032V18.7838V18.7988H16.0411H16.0223L15.9061 17.4957L15.6417 14.5575L15.5029 13.0032H30.0211Z" fill="#EBEBEB"/>
<path d="M30 24.7332V28.3332V30.5138V30.5288H23.6456H23.6269L23.5106 29.2257L23.2481 26.2875L23.1094 24.7332H30Z" fill="#EBEBEB"/>
</svg>
