<svg width="61" height="61" viewBox="0 0 61 61" fill="none" xmlns="http://www.w3.org/2000/svg">
<path d="M11.5823 51.7065L7.36914 4.45459H53.6629L49.4441 51.699L30.4879 56.9546L11.5823 51.7065Z" fill="#E44F26"/>
<path d="M30.5156 52.9382L45.8344 48.6914L49.4381 8.31885H30.5156V52.9382Z" fill="#F1662A"/>
<path d="M30.5156 25.8428H22.8469L22.3181 19.9084H30.5156V14.1128H30.495H15.9844L16.1231 15.669L17.5463 31.6384H30.5156V25.8428Z" fill="#EBEBEB"/>
<path d="M30.5153 40.8934L30.4891 40.9009L24.0353 39.159L23.6228 34.5371H20.4859H17.8047L18.6166 43.6346L30.4891 46.9309L30.5153 46.9234V40.8934Z" fill="#EBEBEB"/>
<path d="M30.4951 25.8428V31.6384H37.6314L36.9601 39.1553L30.4951 40.899V46.929L42.377 43.6346L42.4632 42.6559L43.8245 27.399L43.967 25.8428H42.4051H30.4951Z" fill="white"/>
<path d="M30.4951 14.1128V17.7128V19.8953V19.9084H44.4751H44.4939L44.6101 18.6072L44.8745 15.669L45.0132 14.1128H30.4951Z" fill="white"/>
</svg>
