<svg width="54" height="32" viewBox="0 0 54 32" fill="none" xmlns="http://www.w3.org/2000/svg">
<path d="M13.875 10.6875C15.625 3.6875 20 0.1875 27 0.1875C37.5 0.1875 38.8125 8.0625 44.0625 9.375C47.5625 10.25 50.625 8.9375 53.25 5.4375C51.5 12.4375 47.125 15.9375 40.125 15.9375C29.625 15.9375 28.3125 8.0625 23.0625 6.75C19.5625 5.875 16.5 7.1875 13.875 10.6875ZM0.75 26.4375C2.5 19.4375 6.875 15.9375 13.875 15.9375C24.375 15.9375 25.6875 23.8125 30.9375 25.125C34.4375 26 37.5 24.6875 40.125 21.1875C38.375 28.1875 34 31.6875 27 31.6875C16.5 31.6875 15.1875 23.8125 9.9375 22.5C6.4375 21.625 3.375 22.9375 0.75 26.4375Z" fill="#44A8B3"/>
</svg>
