<svg width="84" height="83" viewBox="0 0 84 83" fill="none" xmlns="http://www.w3.org/2000/svg">
<path d="M71.4 0H12.6C5.64121 0 0 5.57406 0 12.45V70.55C0 77.4259 5.64121 83 12.6 83H71.4C78.3588 83 84 77.4259 84 70.55V12.45C84 5.57406 78.3588 0 71.4 0Z" fill="#F7DF1E"/>
<path d="M53.1562 59.9805C54.7969 62.7363 57.0938 64.6816 60.8672 64.6816C64.1484 64.6816 66.2812 63.0605 66.2812 60.791C66.2812 58.1973 64.1484 57.2246 60.5391 55.6035L58.5703 54.793C52.8281 52.3613 49.0547 49.4434 49.0547 43.1211C49.0547 37.2852 53.4844 32.7461 60.5391 32.7461C65.625 32.7461 69.2344 34.5293 71.6953 39.0684L65.625 42.959C64.3125 40.5273 62.8359 39.5547 60.5391 39.5547C58.2422 39.5547 56.7656 41.0137 56.7656 42.959C56.7656 45.2285 58.2422 46.2012 61.6875 47.6602L63.6562 48.4707C70.3828 51.3887 74.1562 54.1445 74.1562 60.791C74.1562 67.7617 68.5781 71.6523 61.0312 71.6523C53.6484 71.6523 48.8906 68.248 46.5938 63.709L53.1562 59.9805ZM25.2656 60.6289C26.5781 62.7363 27.5625 64.6816 30.3516 64.6816C32.9766 64.6816 34.6172 63.709 34.6172 59.8184V32.9082H42.4922V59.4941C42.4922 67.5996 37.7344 71.166 30.6797 71.166C24.2812 71.166 20.6719 67.9238 18.8672 64.0332L25.2656 60.6289Z" fill="black"/>
</svg>
