<svg width="57" height="40" viewBox="0 0 57 40" fill="none" xmlns="http://www.w3.org/2000/svg">
<path d="M35.1562 27.9805C36.7969 30.7363 39.0938 32.6816 42.8672 32.6816C46.1484 32.6816 48.2812 31.0605 48.2812 28.791C48.2812 26.1973 46.1484 25.2246 42.5391 23.6035L40.5703 22.793C34.8281 20.3613 31.0547 17.4434 31.0547 11.1211C31.0547 5.28516 35.4844 0.746094 42.5391 0.746094C47.625 0.746094 51.2344 2.5293 53.6953 7.06836L47.625 10.959C46.3125 8.52734 44.8359 7.55469 42.5391 7.55469C40.2422 7.55469 38.7656 9.01367 38.7656 10.959C38.7656 13.2285 40.2422 14.2012 43.6875 15.6602L45.6562 16.4707C52.3828 19.3887 56.1562 22.1445 56.1562 28.791C56.1562 35.7617 50.5781 39.6523 43.0312 39.6523C35.6484 39.6523 30.8906 36.248 28.5938 31.709L35.1562 27.9805ZM7.26562 28.6289C8.57812 30.7363 9.5625 32.6816 12.3516 32.6816C14.9766 32.6816 16.6172 31.709 16.6172 27.8184V0.908203H24.4922V27.4941C24.4922 35.5996 19.7344 39.166 12.6797 39.166C6.28125 39.166 2.67188 35.9238 0.867188 32.0332L7.26562 28.6289Z" fill="black"/>
</svg>
